<svg width="20" height="20" viewBox="0 0 20 20" fill="none" xmlns="http://www.w3.org/2000/svg">
<path d="M8.05418 6.24369e-08C9.57649 -0.000189433 11.0677 0.430964 12.355 1.2435C13.6423 2.05603 14.673 3.21669 15.3277 4.59097C15.9823 5.96526 16.2342 7.49691 16.054 9.00845C15.8738 10.52 15.269 11.9495 14.3096 13.1314L19.754 18.5756C19.9035 18.7241 19.9911 18.9237 19.9994 19.1342C20.0076 19.3448 19.9357 19.5506 19.7983 19.7103C19.6608 19.87 19.468 19.9717 19.2586 19.9949C19.0491 20.0181 18.8387 19.9612 18.6696 19.8355L18.5762 19.7544L13.1308 14.3103C12.1295 15.1226 10.9479 15.6827 9.6853 15.9435C8.42264 16.2044 7.11581 16.1584 5.87464 15.8094C4.63346 15.4603 3.4942 14.8185 2.5526 13.9377C1.61101 13.057 0.894575 11.9632 0.463524 10.7481C0.0324733 9.533 -0.100605 8.23221 0.0754738 6.95502C0.251552 5.67783 0.731643 4.46157 1.4754 3.40844C2.21916 2.35531 3.20485 1.49608 4.34964 0.902973C5.49442 0.309863 6.76486 0.000197843 8.05418 6.24369e-08V6.24369e-08ZM8.05418 1.66657C7.2152 1.66657 6.38443 1.83181 5.6093 2.15286C4.83418 2.47392 4.12989 2.94449 3.53663 3.53772C2.94338 4.13095 2.47279 4.83521 2.15172 5.6103C1.83065 6.38539 1.6654 7.21612 1.6654 8.05508C1.6654 8.89403 1.83065 9.72476 2.15172 10.4999C2.47279 11.2749 2.94338 11.9792 3.53663 12.5724C4.12989 13.1657 4.83418 13.6362 5.6093 13.9573C6.38443 14.2783 7.2152 14.4436 8.05418 14.4436C9.74859 14.4436 11.3736 13.7705 12.5717 12.5724C13.7699 11.3744 14.443 9.74941 14.443 8.05508C14.443 6.36074 13.7699 4.7358 12.5717 3.53772C11.3736 2.33964 9.74859 1.66657 8.05418 1.66657V1.66657Z" fill="#0065DD"/>
</svg>
