<svg width="17" height="20" viewBox="0 0 17 20" fill="none" xmlns="http://www.w3.org/2000/svg">
<path fill-rule="evenodd" clip-rule="evenodd" d="M1.0625 17.8947H15.9375C16.2193 17.8947 16.4895 18.0056 16.6888 18.203C16.8881 18.4005 17 18.6682 17 18.9474C17 19.2265 16.8881 19.4943 16.6888 19.6917C16.4895 19.8891 16.2193 20 15.9375 20H1.0625C0.780707 20 0.510457 19.8891 0.311199 19.6917C0.111942 19.4943 0 19.2265 0 18.9474C0 18.6682 0.111942 18.4005 0.311199 18.203C0.510457 18.0056 0.780707 17.8947 1.0625 17.8947ZM9.5625 11.7632L13.0082 8.35053L14.5106 9.83895L8.5 15.7937L2.48944 9.83895L3.99181 8.35053L7.4375 11.7632V0H9.5625V11.7632Z" fill="#BCC5D6"/>
</svg>
