<svg width="16" height="12" viewBox="0 0 16 12" fill="none" xmlns="http://www.w3.org/2000/svg">
<path d="M15.4286 0H0.571429C0.255357 0 0 0.24375 0 0.545455V11.4545C0 11.7563 0.255357 12 0.571429 12H15.4286C15.7446 12 16 11.7563 16 11.4545V0.545455C16 0.24375 15.7446 0 15.4286 0ZM13.9857 1.85625L8.35179 6.04091C8.2125 6.14489 8.01786 6.14489 7.87857 6.04091L2.24286 1.85625C2.22161 1.8406 2.20603 1.819 2.19829 1.79447C2.19056 1.76994 2.19106 1.74372 2.19972 1.71947C2.20838 1.69523 2.22478 1.67418 2.2466 1.65927C2.26843 1.64437 2.29459 1.63636 2.32143 1.63636H13.9071C13.934 1.63636 13.9601 1.64437 13.982 1.65927C14.0038 1.67418 14.0202 1.69523 14.0289 1.71947C14.0375 1.74372 14.038 1.76994 14.0303 1.79447C14.0225 1.819 14.007 1.8406 13.9857 1.85625Z" fill="#BCC5D6"/>
</svg>
