<svg width="11" height="17" viewBox="0 0 11 17" fill="none" xmlns="http://www.w3.org/2000/svg">
<path d="M9.35 0H1.65C0.739062 0 0 0.713867 0 1.59375V15.4062C0 16.2861 0.739062 17 1.65 17H9.35C10.2609 17 11 16.2861 11 15.4062V1.59375C11 0.713867 10.2609 0 9.35 0ZM5.5 15.9375C4.89156 15.9375 4.4 15.4627 4.4 14.875C4.4 14.2873 4.89156 13.8125 5.5 13.8125C6.10844 13.8125 6.6 14.2873 6.6 14.875C6.6 15.4627 6.10844 15.9375 5.5 15.9375ZM9.35 12.3516C9.35 12.5707 9.16438 12.75 8.9375 12.75H2.0625C1.83563 12.75 1.65 12.5707 1.65 12.3516V3.05469C1.65 2.83555 1.83563 2.65625 2.0625 2.65625H8.9375C9.16438 2.65625 9.35 2.83555 9.35 3.05469V12.3516Z" fill="#BCC5D6"/>
</svg>
