<svg width="60" height="60" viewBox="0 0 60 60" fill="none" xmlns="http://www.w3.org/2000/svg">
<circle cx="30" cy="30" r="30" fill="#F1F2F5"/>
<path d="M41.4444 25.731H40.702L40.741 22.896C40.7363 22.7303 40.6749 22.5718 40.5677 22.449L34.1894 15.201C34.1381 15.1402 34.0754 15.091 34.0051 15.0564C33.9348 15.0218 33.8584 15.0026 33.7806 15H20.4347C20.1355 15.005 19.8498 15.1304 19.6378 15.3497C19.4257 15.569 19.3039 15.8653 19.298 16.176V25.731H18.5541C18.1425 25.731 17.7453 25.908 17.4564 26.223C17.1632 26.538 17 26.9655 17 27.4125V36.1575C17 37.0845 17.6962 37.8375 18.5541 37.8375H19.298V43.8225C19.3036 44.134 19.4256 44.431 19.6383 44.6508C19.851 44.8705 20.1376 44.9958 20.4376 45H39.6159C40.2153 45 40.7425 44.472 40.7425 43.824V37.839H41.4459C42.3038 37.839 43 37.0845 43 36.156V27.411C43 26.967 42.8368 26.538 42.545 26.223C42.4035 26.0683 42.2333 25.945 42.0446 25.8604C41.856 25.7758 41.6528 25.7318 41.4473 25.731H41.4444ZM21.2609 17.067H31.3079V23.9325C31.3073 24.0871 31.3642 24.2359 31.4668 24.348C31.5693 24.459 31.708 24.5205 31.8524 24.5205H38.7261V25.731H21.2609V17.067ZM21.2609 42.933V37.8375H38.7261V42.933H21.2609ZM33.3083 17.28L33.8644 17.931L37.5909 22.2105L37.7974 22.47H33.9886C33.6997 22.47 33.5192 22.4205 33.4426 22.32C33.3661 22.2225 33.3213 22.065 33.3083 21.8505V17.28ZM19.8887 36.348V27.348H22.659C23.7076 27.348 24.3923 27.393 24.71 27.483C25.2011 27.618 25.6113 27.912 25.9421 28.365C26.2714 28.8165 26.4375 29.4 26.4375 30.117C26.4375 30.669 26.3421 31.134 26.1515 31.512C25.9608 31.887 25.7182 32.1825 25.425 32.397C25.157 32.6002 24.8525 32.7455 24.5295 32.8245C24.1178 32.91 23.5213 32.9535 22.7399 32.9535H21.6147V36.348H19.8887ZM21.6147 28.8705V31.425H22.5594C23.2397 31.425 23.6946 31.377 23.9243 31.284C24.1463 31.197 24.3364 31.04 24.468 30.8349C24.5996 30.6299 24.6661 30.3873 24.658 30.141C24.6686 29.8447 24.5705 29.5552 24.3836 29.331C24.2033 29.1195 23.9585 28.9787 23.6903 28.932C23.4852 28.8915 23.0707 28.872 22.4481 28.872H21.6147V28.8705ZM27.45 27.348H30.6045C31.3165 27.348 31.8582 27.405 32.2323 27.5205C32.7335 27.675 33.1624 27.9525 33.5206 28.3485C33.8774 28.746 34.1504 29.232 34.3367 29.8065C34.5245 30.3825 34.6169 31.0905 34.6169 31.9335C34.6169 32.6745 34.5302 33.3135 34.354 33.849C34.1403 34.5045 33.8341 35.034 33.4383 35.439C33.1393 35.7465 32.7349 35.9865 32.225 36.159C31.8452 36.285 31.3353 36.348 30.6983 36.348H27.45V27.348ZM29.176 28.8705V34.8315H30.4644C30.9468 34.8315 31.2949 34.803 31.5086 34.746C31.7888 34.671 32.0214 34.548 32.2048 34.371C32.3897 34.1955 32.5414 33.906 32.6569 33.5025C32.7739 33.099 32.8317 32.55 32.8317 31.854C32.8317 31.158 32.7739 30.624 32.6584 30.252C32.5666 29.9238 32.3979 29.6243 32.1673 29.3805C31.9444 29.1644 31.6677 29.0174 31.3685 28.956C31.1273 28.899 30.655 28.8705 29.9531 28.8705H29.176ZM35.6944 36.348V27.348H41.5542V28.8705H37.4204V31.0005H40.988V32.523H37.4204V36.348H35.6944Z" fill="#0065DD"/>
</svg>
