<svg width="19" height="16" viewBox="0 0 19 16" fill="none" xmlns="http://www.w3.org/2000/svg">
<path d="M0.335633 7.67111L4.71339 9.24908L6.40826 14.5202C6.43272 14.5985 6.47675 14.6698 6.53647 14.7278C6.59618 14.7857 6.66973 14.8285 6.75063 14.8525C6.83152 14.8764 6.91726 14.8807 7.00027 14.8649C7.08327 14.8492 7.16099 14.8139 7.22655 14.7622L9.66751 12.8381C9.79196 12.7403 9.94633 12.6849 10.1067 12.6806C10.267 12.6762 10.4243 12.7232 10.5542 12.8142L14.956 15.9052C15.0258 15.9541 15.107 15.9853 15.1924 15.9961C15.2778 16.0068 15.3647 15.9967 15.445 15.9667C15.5253 15.9367 15.5966 15.8877 15.6524 15.8242C15.7081 15.7607 15.7466 15.6848 15.7642 15.6032L18.9892 0.600855C19.0081 0.513031 19.0021 0.421923 18.9719 0.337107C18.9418 0.252292 18.8885 0.176902 18.8178 0.118862C18.7471 0.0608221 18.6616 0.0222761 18.5701 0.00727571C18.4787 -0.00772463 18.3848 0.00137476 18.2983 0.0336174L0.330566 6.73756C0.232832 6.77398 0.148868 6.83831 0.0898258 6.92198C0.0307837 7.00565 -0.000542698 7.10472 7.11522e-06 7.20602C0.000556929 7.30732 0.0329569 7.40607 0.0929041 7.48914C0.152851 7.57221 0.237509 7.63567 0.335633 7.67111ZM6.13528 8.41048L14.6938 3.3133C14.7254 3.29525 14.7626 3.28903 14.7986 3.29582C14.8346 3.30261 14.8667 3.32194 14.8889 3.35013C14.9111 3.37833 14.9218 3.41342 14.919 3.44876C14.9162 3.48409 14.9001 3.5172 14.8737 3.54179L7.80987 9.89044C7.56201 10.1136 7.40176 10.413 7.35639 10.7376L7.11571 12.4614C7.10918 12.5102 7.0854 12.5554 7.04841 12.5893C7.01141 12.6231 6.96346 12.6436 6.91266 12.6472C6.86187 12.6508 6.81135 12.6373 6.76964 12.609C6.72793 12.5808 6.6976 12.5394 6.68376 12.492L5.75906 9.3477C5.70757 9.17318 5.71645 8.98715 5.78437 8.81796C5.85228 8.64877 5.97551 8.50567 6.13528 8.41048Z" fill="#BCC5D6"/>
</svg>
