<svg width="25" height="18" viewBox="0 0 25 18" fill="none" xmlns="http://www.w3.org/2000/svg">
<path d="M24.4849 2.8167C24.3419 2.27413 24.0633 1.77949 23.6768 1.38195C23.2902 0.984412 22.8092 0.697824 22.2816 0.55067C20.3254 0.000244141 12.4998 0.000244141 12.4998 0.000244141C12.4998 0.000244141 4.6745 0.000244141 2.71829 0.529762C1.66804 0.826083 0.802349 1.71545 0.514958 2.8167C0 4.82823 0 8.99964 0 8.99964C0 8.99964 0 13.1924 0.514958 15.183C0.657853 15.7257 0.936423 16.2205 1.32297 16.6182C1.70951 17.0159 2.19056 17.3026 2.71829 17.4498C4.69523 18.0002 12.5001 18.0002 12.5001 18.0002C12.5001 18.0002 20.3254 18.0002 22.2816 17.4707C22.8093 17.3237 23.2903 17.0372 23.6769 16.6397C24.0635 16.2422 24.3422 15.7476 24.4853 15.2051C24.9999 13.1948 24.9999 9.02216 24.9999 9.02216C24.9999 9.02216 25.0206 4.82823 24.4849 2.8167ZM10.0098 12.8534V5.14666L16.517 9.00045L10.0098 12.8534Z" fill="#BCC5D6"/>
</svg>
